<?xml version="1.0" encoding="utf-8"?>
<!-- Generator: Adobe Illustrator 16.0.0, SVG Export Plug-In . SVG Version: 6.00 Build 0)  -->
<!DOCTYPE svg PUBLIC "-//W3C//DTD SVG 1.0//EN" "http://www.w3.org/TR/2001/REC-SVG-20010904/DTD/svg10.dtd">
<svg version="1.0" id="Layer_1" xmlns="http://www.w3.org/2000/svg" xmlns:xlink="http://www.w3.org/1999/xlink" x="0px" y="0px"
	 width="100px" height="100px" viewBox="0 0 100 100" enable-background="new 0 0 100 100" xml:space="preserve">
<polygon fill="none" stroke="#662ca1" stroke-width="2" stroke-linecap="round" stroke-linejoin="round" stroke-miterlimit="10" points="
	21.715,33.431 21.715,21.715 10,21.715 21.715,21.715 "/>
<polygon fill="none" stroke="#662ca1" stroke-width="2" stroke-linecap="round" stroke-linejoin="round" stroke-miterlimit="10" points="
	78.283,66.57 78.283,78.283 90,78.283 78.283,78.283 "/>
<path fill="none" stroke="#662ca1" stroke-width="2" stroke-linecap="round" stroke-linejoin="round" stroke-miterlimit="10" d="
	M78.283,78.283c7.238-7.238,11.715-17.24,11.715-28.285C89.998,27.91,72.09,10,49.999,10c-7.288,0-14.112,1.958-19.996,5.362
	C35.886,11.958,42.71,10,49.999,10c22.091,0,40,17.909,40,39.998C89.998,61.043,85.521,71.045,78.283,78.283z"/>
<path fill="none" stroke="#662ca1" stroke-width="2" stroke-linecap="round" stroke-linejoin="round" stroke-miterlimit="10" d="
	M69.996,84.635C64.111,88.039,57.285,90,49.999,90C27.908,90,10,72.088,10,49.999c0-11.045,4.477-21.046,11.715-28.283
	C14.477,28.953,10,38.954,10,49.999C10,72.088,27.908,90,49.999,90C57.285,90,64.111,88.039,69.996,84.635z"/>
<path fill="none" stroke="#662ca1" stroke-width="2" stroke-linecap="round" stroke-linejoin="round" stroke-miterlimit="10" d="
	M26.909,53.645c3.358,3.357,3.355,8.797,0,12.152l-6.077-6.076L26.909,53.645z"/>
<path fill="none" stroke="#662ca1" stroke-width="2" stroke-linecap="round" stroke-linejoin="round" stroke-miterlimit="10" d="
	M34.202,73.09c3.355-3.357,8.797-3.357,12.152-0.002l-6.077,6.076L34.202,73.09z"/>
<path fill="none" stroke="#662ca1" stroke-width="2" stroke-linecap="round" stroke-linejoin="round" stroke-miterlimit="10" d="
	M73.09,46.352c-3.357-3.355-3.355-8.795,0.002-12.154l6.074,6.077L73.09,46.352z"/>
<path fill="none" stroke="#662ca1" stroke-width="2" stroke-linecap="round" stroke-linejoin="round" stroke-miterlimit="10" d="
	M65.799,26.909c-3.357,3.358-8.799,3.355-12.154,0l6.078-6.077L65.799,26.909z"/>
<ellipse transform="matrix(0.7071 -0.7071 0.7071 0.7071 -20.7112 50.0028)" fill="none" stroke="#662ca1" stroke-width="2" stroke-linecap="round" stroke-linejoin="round" stroke-miterlimit="10" cx="49.999" cy="50" rx="6.874" ry="8.594"/>
<path fill="none" stroke="#662ca1" stroke-width="2" stroke-linecap="round" stroke-linejoin="round" stroke-miterlimit="10" d="
	M65.797,26.909c-3.355,3.358-8.797,3.355-12.152,0L26.909,53.645c3.358,3.357,3.355,8.797,0,12.152L34.2,73.09
	c3.357-3.355,8.797-3.355,12.152,0L73.09,46.352c-3.357-3.355-3.355-8.795,0.002-12.154L65.797,26.909z"/>
</svg>
